<mxfile host="app.diagrams.net" modified="2024-03-07T16:59:37.639Z" agent="Mozilla/5.0 (Windows NT 10.0; Win64; x64) AppleWebKit/537.36 (KHTML, like Gecko) Chrome/122.0.0.0 Safari/537.36" etag="WyUjzcVj3t03cfnvAXLy" version="24.0.2" type="device">
  <diagram name="Página-1" id="2AUYTNE9YZBS4R4pggCR">
    <mxGraphModel dx="808" dy="435" grid="1" gridSize="10" guides="1" tooltips="1" connect="1" arrows="1" fold="1" page="1" pageScale="1" pageWidth="827" pageHeight="1169" math="0" shadow="0">
      <root>
        <mxCell id="0" />
        <mxCell id="1" parent="0" />
        <mxCell id="ea6TeWJGVq73FFdNhREu-3" value="" style="rounded=0;whiteSpace=wrap;html=1;" vertex="1" parent="1">
          <mxGeometry x="250" y="260" width="1330" height="480" as="geometry" />
        </mxCell>
        <mxCell id="ea6TeWJGVq73FFdNhREu-4" value="arquivos em BAT" style="text;html=1;align=center;verticalAlign=middle;whiteSpace=wrap;rounded=0;" vertex="1" parent="1">
          <mxGeometry x="270" y="270" width="110" height="30" as="geometry" />
        </mxCell>
        <mxCell id="ea6TeWJGVq73FFdNhREu-5" value="DEFINIÇÃO&lt;div&gt;&lt;br&gt;&lt;/div&gt;&lt;div&gt;arquivos em BAT são basicamente lotes de comandos. Um conjunto de comandos executados em lote.&lt;/div&gt;" style="text;html=1;align=center;verticalAlign=middle;whiteSpace=wrap;rounded=0;" vertex="1" parent="1">
          <mxGeometry x="270" y="340" width="190" height="60" as="geometry" />
        </mxCell>
        <mxCell id="ea6TeWJGVq73FFdNhREu-7" value="CONCEITOS&lt;div&gt;&lt;br&gt;&lt;/div&gt;&lt;div&gt;É um arquivo de texto contendo linhas com comandos que podem ser executados sequencialmente pelo interpretador de comandos vulgo CMD.&lt;/div&gt;" style="text;html=1;align=center;verticalAlign=middle;whiteSpace=wrap;rounded=0;" vertex="1" parent="1">
          <mxGeometry x="520" y="330" width="230" height="80" as="geometry" />
        </mxCell>
        <mxCell id="ea6TeWJGVq73FFdNhREu-8" value="COMANDOS&lt;div&gt;&lt;br&gt;&lt;div&gt;conforme os fatos supracitados os comandos dos arquivos em BAT são basicamente os mesmos do CMD. a diferença é a aplicação e que podemos estrutura-los em sequência de passos lógicos.&lt;/div&gt;&lt;/div&gt;" style="text;html=1;align=center;verticalAlign=middle;whiteSpace=wrap;rounded=0;" vertex="1" parent="1">
          <mxGeometry x="260" y="470" width="250" height="75" as="geometry" />
        </mxCell>
        <mxCell id="ea6TeWJGVq73FFdNhREu-9" value="EXTENSÃO&lt;div&gt;&lt;br&gt;&lt;/div&gt;&lt;div&gt;a extensão utilizada é .bat e quando inicializado é aberto o CMD e são executados os comandos descritos na sequência de passos lógicos do arquivo bat&lt;/div&gt;" style="text;html=1;align=center;verticalAlign=middle;whiteSpace=wrap;rounded=0;glass=0;shadow=0;textShadow=0;" vertex="1" parent="1">
          <mxGeometry x="560" y="500" width="150" height="25" as="geometry" />
        </mxCell>
        <mxCell id="ea6TeWJGVq73FFdNhREu-10" value="COMANDOS NA PRÁTICA&lt;div&gt;&lt;br&gt;&lt;/div&gt;&lt;div&gt;taskkill = encerra os programas&lt;/div&gt;&lt;div&gt;echo = mostra coisas na tela&lt;/div&gt;&lt;div&gt;goto = vai para uma determina etiqueta&lt;/div&gt;&lt;div&gt;pause = interrompe a sequência dos passos lógicos&lt;/div&gt;&lt;div&gt;start = começa um programa&lt;/div&gt;&lt;div&gt;cls = apaga o que tinha na tela&amp;nbsp;&lt;/div&gt;&lt;div&gt;@echo off = apaga informações de usuário&lt;/div&gt;&lt;div&gt;&lt;br&gt;&lt;/div&gt;" style="text;html=1;align=center;verticalAlign=middle;whiteSpace=wrap;rounded=0;" vertex="1" parent="1">
          <mxGeometry x="740" y="360" width="330" height="50" as="geometry" />
        </mxCell>
        <mxCell id="ea6TeWJGVq73FFdNhREu-11" value="EXEMPLO DE SCRIPT" style="text;html=1;align=center;verticalAlign=middle;whiteSpace=wrap;rounded=0;" vertex="1" parent="1">
          <mxGeometry x="1241" y="390" width="110" height="30" as="geometry" />
        </mxCell>
        <mxCell id="ea6TeWJGVq73FFdNhREu-12" value="" style="shape=image;imageAspect=0;aspect=fixed;verticalLabelPosition=bottom;verticalAlign=top;image=data:image/png,iVBORw0KGgoAAAANSUhEUgAAAq4AAAGSCAYAAAAir0NNAAAAAXNSR0IArs4c6QAAAARnQU1BAACxjwv8YQUAAAAJcEhZcwAAEnQAABJ0Ad5mH3gAAGMLSURBVHhe7d0LvBbVee/xBzVeolw0SNANSGBDAEkDxAuyLTVWGyHqMZbjsYkpeo6CiTbSpPaYxINKrfHUHIOpMbJNqyQ2tZSq9QJJzFHrETTGKGkIEkFEBEO8gngDjZz1n3fm3fO+e67vbe+B39fPyHuZdy5r1qz1zFprZvc5/PDDdxoAAADQy+3h/wsAAAD0agSuAAAAKITyUIEZM2Z4H+yzzz7ev++9957tu+++tn37dttzzz1tjz32sLffftv77qmnnrLf/OY33jyBvfbay04YPco+dNe/28vb37UfH364/w0AAABQv3KL6/vvv2/Dhw+3vffe2/r06WPt7e327LPP2rBhw2z//ff3gtQxY8Z4QazmGz16dDnIlbZBH7ZD9+9vO/br538CAAAANM6egwYNulwvPvrRj9qxxx7rBa0HHHCAfdQFqW+8vs3GHT7ea01V6+vYcePs2fXP2qRJk2zgwIH2+uuve9MBB/S18ROm2Af6Hmov7rW37X3kRFv74u+8FQAAAACNUA5c1YJ63HHH2YABA+xDH/qQDTtsuO18/30voFUgq88PObTNVq78lU0++mj7yEc+Yjt37nTT7+24o4fYyJGD7eV397Tntr9rq59fa+/4wwoAAACARqgYKqBAdER7u41yweoH9/+gTfnDY+3ADx1kHxk5wsZ97GPWZ889rI+bV62sBx54oAtgP2Ef/+hB9mcT7rLR799qB733K9vxxsv22quvlBYKAAAANEj55qzp06fbBRdcYAcMOMi2vPmWvbOj68arwFtvvWn33/PvtmP7O97NWgd+cJtNalttoz/4H7Zx5TZb9to0++dHttirr77m/6K7/uM/ZSeO6eu/67Jt9X3245Vb/Xdhw+yYGWNt230/tqiv8y5v2DEz7Kg2/41seswWP7LBfxNj2DE2I/yjiN9ULHfbarvvxyutvPYMvy/z5u1nq2P2t0LKcsNpE5++jZZ8vMqqt12yHAuf0nvstvz7VDpOm+yxxY9YljWlrcdbnmXf7tbIeAyq5E0bNFdPHI/0ddaWt5qtp/JuVP0TX9b2t/GfOtHGWGX9UNp2/021TZtsU1u/mtNby25FOYna1Hp8mqV03LdFxh9eXu/7VK+o68pDBUaOHGlHH320HXTggfbBffa2Az64r/Xbf7+KaUDf/W3E8OF2+OHj3HS4jR220w7d8Q/2yvot9vJrH7R7nthhz/xuh7fgOPsOareR239pi3/yiK1atcqf3rBBU6fa5HH97Y1VG7sCPs9W26P/RBux7yZ75sXt/mddsi9PhcYp9vHtLsgIzfvGgKFmL75o3ZcccL8bt689+ZMH7Ul/2f0nH2WH79G1PTqgUw9+1u67W/Nssj3aj7ajB71hqzZqzem/7+LmnTzBBu6zw15e94xF7G5IynL7j7fjjjb75eKf2CN+egx9Y5V5m9RUycfL2253HKaO2OYKRW1b6Th423+4K6CfSToWXfoPHWcH71gXs454WzdqXdV5LF7aevR9m23yj3VvkXYMomVOG110TB5gmzIeK9Qmb15thPR11pa3mq0n0kq61T+b9rB2V48Oiipr+4+yiUP2sR19+1mfTV3le2nbS9Mb/V15si1UR23cWFd6t6qcRG1qPT4VGlgee/VZv31s4KA9ui3Py+v7vJyvrmtSXVE1VOB9+737951337M339nebdLn+/UfYPsfNNAG9n/dBu/7a9v3/Zfs9ZfeszXvT7bn36r1iQIb7JHF99nqbW121DHD/M+6bFi12qxtqAt5sopYXv+h1tbXXUmsqrxa2LAy1DIaaautfCQ8zwZbtXqb9S1vzzAb5664Nz0VzOPmf3S1bWsba+O9GdJ+36X/+Mk25nV3he2/T5a83P5D3SX86lXu067v+vXLnoL1SDpe3j6qxaHblbw7ZuFWatQl/zkDZEPeSrB1pT3lCvC2tu712LBxY8w2Peq+72tjxnX/Pg7pjVbatnq1beo7xiaXApheqdziqput1OK693772utvbXbTKntnxwux016v/9Q+8Lu7bMvGF+23r33Y7v7Nh22ti8Q1TjZJfNS+3V58t7+NG9uv1Eraf7x96pSJtp+uTLdut/3aj7Yh73a/is28vO372qBxI2yfV+pvddy+7yAbd/AOW6erCBcQHz5yu617JHR1mrKuit/7n5VbSH+yyfqNO9h2pLa4dhderrl0GWIby1dySqfyey9tp9rEceNsnKah4aurUovoyHc32YDJp9jUiZpnqO0RaiEQtTKfMnVi6fea+gctzM72uOM1zCZNHWHbfvmgrU07Bonb6L72r1RfHnRc13ZE7scbNvTEE8ut7/2PmWGTB1S2XlTuS+W+pl0Re1eoCS2uienkqGtG2xO/HyVJ2+hd1Z44ufK7hHMmcn63rGBbyvsaMd++k2bYie6csn0G2kh9HtqfpG0sLfsN22/iiX6eGmf91Spl4eNc1eOSkgfi9iNK849DdH4rlWMJ++BUb5uXLm7Tuh0PJ3k/Mpy7KduTJQ8k5q1MZUtVGrlvtN4TJ3f95o39JtqJI9/1903DEybbgG77MdLeDf0+2G5vWUMrj6+XbhP3K29LWn6I3O9g3SFR9Y/KhH7bVlWVGcNs3OR+9vKTv7Y1L+1hQycMLG97WGR5ElueOinHszHlZPxxixIci7zr1PJSj4uTnFdilp0p37e+fEo/Pk7Cery0iCmPa1HaniftwXX72sSPH1yxv5F5PeF4JW1b5e8q0yY9/4QCVz2bdfIxR9u+++1jO37/n7bT/t323GN15LR3nxW2/xsP2+83/Ket/XUfe+mA4+xfH1hn772vW7eSxQeaMsCGjnRBm3bCBln7yH62zQvgttv2/YbahIFB5uySeXnbt9q2PdwyPj7RhkZ202c3bNxka9u+zp7UOj880ib222arwhnNGTB0pO3zckRB41T83uNOtlLUar/e2t+G1hi4hperIHbiiH39g62A8WCv0NQy+48aaX2e/Ik9+KS6g6qHNrigu32kjRgxyF5+6G5vnjf6T7SPj+zKOMp0J455PdTV75Zx+FSbWl5GzPEaNs4ma/xMOMiPkbyN7nt3go0YMdIGvfyQ3f3gk7H7cfDB5vZDy/ELRr+gCI6/ty9tm/xhHm5dbwyyqVOHdhWkVfNX0/dxgWt6OpV+n7wfKduoQs0d22fvKx2rVW/sZ4O2vxh/zsTOX9qW8r7GzLdmrV67C8J+L5S2J8s26ntvP13F7eepTf65OG7Qy/ZQMMRm6AT7eHi/k/JAwn5Ua8lxiMtvafm4ets27WED9nX7oV0MH4+oebvtR4ZzN8N5lZYHksrjLGVLdRqpojqq3+qudH13pJ348YFm24LzKqJMdOVb+8h97OWI83TrHi5/DukTquj626iJY237U6UL5tR0zJG3utU/Llg5cew2++WDa73tKlPZ1+9le/LXbptc+u3n8vrAiEBU+9G9PKk1vUvLq7+cjJ4nTs3rzHCepueVmGVnSqfWl0/paZW8Hm9IR0R5XKvycV+z1pUdk+2o0AVgdV5PO15x2+b9LrWuSE6TiqEC5sLV19/Zaq+6797ZPip2OmDLVtv71d/Zm6/vtDffNPv1S/1tx/t7lhZUj62v2+v+S3W5/Hhx1wDhrc9vsm1tbS4EyyG8PGfryh/b4vtWm4050ftLYZ+qoSlcie4NWs8wQDmqaz7q98OOOdHGvP6Y1TPmudtyNzxi921qsxPdfs6YcZT1W/1oV1qufCQ08HqrrVTfVr9+rnjvsi00v7qqtvXt63+voRFmq+8Ld/UHwyO6jk/W46Xt1rEoTcd0/T7DNupmrq5B7cE2BEM0fJtWhZZTzd+XR0NDFDas8oaYRPT05ZQtnTyJ+5FlG10+D77csLLrOMceg+j5u8s6X8Z03PRU17atfMobElMxxKbqGKfngSzb18rj4FTlt+R90DL7utWGts2Veyu7NjQk+37En7tp2xMlX97Kdt6G02iYtelitiJdH7HH3M9qtmGTberbZkODlXrDxNxnXsJlTcesed9pO6qrDDvKhZ3h4+kb5pa9bdPz/j5utec3bYscThCnvvSut5z0ZZknkHudWY5LjryS6zz09Uj55KSkVf5ztjG8sqP6mJVlL48q+b9LLUeT06QqcDXb8sYW2/zGGnulzy+6Ta/2edLe3GOt7bH9GXtr8ysuLhxsg474c/v9Xv0tZYRANv37WewoWW/sUM6AImp5XkC82Ba73N5XAWzEmNo4XtO3d4XRvWCK8no515ZE/t5doXtXkHVErXHb5QXq2lc3dWWCkoqAMeKW1uptd2eKeXH4MHcMwidkwLtI8Ofx3mc7XuVtdBcU2/zPAmnbuG1b1UZUXahI9/0I8falr7uO8dfhTe4iovtDKvLLmk5O4n6kbePW522TO+mPcp93y8pRxyBp/rCs80nGdOy2n+6Id/uoSmweyLp9rToOvqj8FrsP3jKDgCpFjv2IPXd9aedVWd685ctVtnhldPf92rqtujTIY4Nt2tTX2vzIVeP9+27aVCobs6RjnrwvrpINytnFi++zbWPdfod/2H+8jXUB16bnu1ZaCkTjgoIIdaR33eWkL8s8gdzrzHJccuSVqG3NnU6tKJ+cLGmV+ZyNpKE2/m+9qauBKJHLcy5etDGTx3cPknOURxW839VQV1SlSbfnuL627TV74fUN9srO7tPW99db/7eetD5b3Un32g7b0WeoffiIz1mfffqmjm3NpH9f67ttk4XO7wobXOHTNjYiEeMkLc9dqXnBUqbCQ+NmZpQeexQVtIZaNEr666OQuN+7z8e6TNh3jN8yqumorgObWmqmbFekUib2muqDwrau5o143Y7XVlcQJGXqstZto6t1XMDvryM01dP63XhJ2+iuRn/s3ru83O8o5Z/KQqn7OZM8f5es8wUanY5peSDv9jVC3n1sZT7OIu/25M1bNeyvymj/ZSNp20o3qva3oW19XSCbJyPWk7fcb6tah7zAubqyPnGM91kQXGfRkPQusprzSjPSKW2ZjSqfGrHtulnd/603ZY0V3F6o5bnhN2rVW1cMqwxc33ex5yuvv2obt7xom3fsqJheeddsx7v7WN8Xt9jbv33HXnmrr73Zr936DjvShb97+0uphztA7kqiq2k+QnUXUKIMy/OieHcypCwv6MqPfH6Ztqk6GPOuDLtaUuJ/72fuigP4mPulnqPmXqccycTtiuNv22OhO/j794tt5+4uLviMuhquPl5eq4ErwNPuqM24jX2rD1zcVWCczIF0DXKkU+J+ZN1Gl7Y/9p+kMTZcyMSdM3HzV8syXzPSMWs+Tdu+Vh+HsLR9yLPMHPsRK2uaVsuat2pZfsx+9a+88u8uLYgJtm1YeJiAkycds54jkYJllQJnPdu1spxfbPfFPF0mVo3pXXc5WYPc68xyXGrOK9nSKZesy8yQhxLTqhnbnosLel2g3HfMOBvqf+KptTyK+12VtDTp1uL66hsv2/pXX7R1b26vmF56e1/b852xtm7jOHvu2QH2zPbDbP1Bf2BqZ33//d/X1+KqgcxqadwUGufpffapqtZQPdZJTwZJ2eu45VW1YPYfP9YlRqhQi+J381Q/RqtLqVuqqzm9v42frEEc/qOoUn9fo7qWG8o4bjmT8/SNuxPRCz5PDF9BVu1zWffjteERF5hrTNinwi0HUTJso1tO1yEtXahs67YNCeL25Zi0bcsgTzol7UfaNg47pltXVGU3WdUxSJ3flzZfuJehaemYkAey7kerjkOshH2IWqabZ3zVfnny7EeiHOd+3rzlyVm2BPsV7o5063VJH7LVtm1z85QveEvHJpk/XEA9WuH0yZKOWfNWpNKyykMT/McwhocJBLzhAn3HWPYnY9WY3vWWk7XIu84sx8Xrfk/LK3Fy5stMEpYZl4fcfN3imtS0yrDt3Xp9G8gbR9xmY8LrzVMe1VJXpKRJ+akChx56qB37h8faLzf80n7uAr5tfd+2V956rzz1eeMDdtCL+9uSu9faQQM/bM/vtZ+te3c/O+7jf2wPP/ywPbXqKe+vaaXx7kwbMaLr8QmaRm4vPSjfv2PM4901GjxVwP/M2b59P2s/ekj5USKZl6dHVE0+yiaH5hs58GVLHa/qbYeL9keGlu9PwWNrdPfcG4Om2lTvER0jbeDLj9ndT7yY+feVMj5VIPdyfdtftJf3aLejj/YfM6G7Jn+53UaWH89Vuiuz4okIVcdC+7tpj8NtavlxFm7+Z6P/+kf18XK/to2rwunlTyMH2suP6akK+lHaNrpUGjrO+r3wmL08Inh8SZv1c/m2nO5R++GU75r0E9c7drp7srwt7jcvPGm/9r+vnr+avm9ra/N/60/+oztezJBO6fuRto0D7PCpwaNSSst/cE3ltlYeg/j5K/c1Ybnuqtm7w1bb6z/iJH86RuRzV8mXHxOXmgfS9zuQJb/Wfxwi8luGfNxtmd6d8qU0qU6z9P1IOXe3ZjuvMuUBX0XeqqVscbZu9O8a9h9DNE7PeX6hX+gO5u324jOlP7BSKr9d3XjfC9Yv5qkCAT1dYOKIfexZ/2kqgfR0zJ63utc/pfI/6AUbNmmqjejzbOlpAt4nIdv1dIGRNmKfrrultR9qTAneV8uX3lnydZZyMnqeOLWuM/24KB+k5ZWIZWdMp5aUT1V1aWpaZdj2qPK4Vt3ToWTrtj1sqKuj9yk/vSHL8XJqrCvS0qT8J1+POOII+9rXv2Y/WPZ9+/7D/2jvHvCmN0/gANvHBr7b1zY9+5oNHbivvbf3B2zkyA678UsL7Kq//YbdeccdtueeDXiyQCoXnX/qROv7VG8bh4hoHK8kurGu+X/yj2OQpjXHYVfUnLylm1F6y5+X7F16/7nc6nOJc3fXkuV4lltcBw8ebB1/2GF77rOXHfCBfjaq/zgbe9AflKeRB42zQwa220dHfcwGt421w4YcbkeMPsLGDT3cHvqPh+zp3/wmU4tr/eKfaVe7YXbMDD2sOLgC6JoSWy+brrduVx7NOF67jrgr3MbiGKRpzXHYFTUnb3V7Pip8veFcTq6XtvVr4bk0LOa5uSisLGVxucV14sSJNvOcmdZ2aJv16dPH9F+SYEzr22+/bd///vdt6dKlttdee3mfAciG1oLegePQu9DiWlzNPJe07MoxrZvSh/uhULLkn4rANXiWa14KdB9//HECVwAAADRNOXAFAAAAerNWDEoFAAAA6kbgCgAAgEIgcAUAAEAhELgCAACgEPoMHz6cm7MAAADQ69HiCgAAgEIgcAUAAEAhELgCAACgEAhcAQAAUAgErgAAACgEAlcAAAAUQo7AdbSdf+uD9uCt57tXrXPSVW6dD15lJ/nve8ro829126FtCU+32vkJieH95qquLe8t+xLwtie0fa2kdd8aSrzeljaSlD7h71q17UVIMyltV+XUQ9msVwvnoWq99dgWUfeyu/Hp2rWO0rILc/xGn2+3arv9en30+Vcl1mnNRtnRc0ppnxTTnGRX6Zj0ggOSPXAdfbwdaxtt45Bj7fgWZuwffe04O+64r9mP/Pc9avnVblu0PcF0lt34tP9dBt325aSrWn4h0Fv1quPs+9FDy82mTI2ofE6yqVNcdniotLU9te29Mc0CG2+b5bZN21eavtYbN7IXn3+9+dgWR6mxpfPMDXZ1KC8ed7XZ1EbWvS74m3um2W2zuo5ZUY7f6OOH2cPa7luHWacLSjqP3WD356jTmqEQZUej9ZqyaIgdGxPgjT7/LBu2caP/rmdlDlxPOtudmQ/Ps1uXD7Ezz+YSCLuBHz1ky21K90rupKnu0+Xmx60AeqHR58+1M+02m1UdQP7oa00IhjbY+h4O+Grx9I1fKzW+uDTxAsWzbrQC7gYaZKMLTIeceXZEY81oO/7YIf7rnpcxcFUL00Z72F2K/eiW22xjt1ao0pXtVSf5TcmhLpKKpn93RXFSRfe55q9qmva6Lip/H3SPesuqaqb2umhCVyrduoVa2Kxdva8j/M8D3fblkinuAudM70q3vJ1B101oOV3JE5/OzZAlLavnKc+SuB/dhdPGvalYZnlqeRr9yEqNrpVLOKnU3FquDCu2XSq2P8jf6Xl910izdMn5KnpbSvt6kvdd8DvvZxX7VbXdCfvc28+/yjwVrLf0b2nbunfpefsU2u68ZW3yvpckr6Ok8vhWrrOm41iTk+zsM4fY8lvTA7Fs+TE67b3fdp5pQ9yl7CWh31Yev5L6jk9M3stwzGLLaCd530uSjqfbqfjvmiB+W6LSp7Y0qzWPpm9bdB7y8kXusshpRto/fKvdtjGqseZs7yLw1of994Ga81/MsdE3GfJktsBVLUwbHy51ITx9vz0ctWPOsLOm2oZQd4kOyCXDdMXrN/vfOswucYVJrbyu22HDQwlTugoICiftcGW30Cy7bdglkTveaHn31etKutrtz0b/N34TQLnrJth+l106q7a/Op2bIUtadptn1m22Ifguw37ECq7+/WnWbRtL6dQDadR9uMBoGz6sa5hANzqRLxnmdxu66erqMz3erpJmSbKeo1HbMuTMs8zmlX6n/ZtyiSvU5uojfzmuXLoktJykfe7t51+UKZd4O+tt29Xq+ZrbVUk0oqxN2/cs6/CO77EPd81z9QY7s7Oyks97HGuSsVcka36MS/unbzzLK/c2unV5y4hpym1UXVid99KOWWIZnWHfE49nHWVdLbLkrahzM2+aSe6yJsO2xeWhmsqipqX9Orv/Ybe/Z1UGoGqs2fjw/e7bSvXkP+l2bDLkSckUuAYbXbpyfbq0Y1GR68O3hMZ8llppb5sXuuJ1lauOT83UdRseY6txt0OCwukkd4WtcUbhyuRpu3FeVAtxjaa4BAxfCZSvLhq3r+WuG4/b/lvdQiqCdacinZshS1pqHnfRcHVonqdvtBv9N5n2Iwt3gnrjx0Jp29I08oYLDLPhkXkuTqjb8EcuTTJuxy6TZs6QMztD50pQgOc4R6O2Zfmt5c+evvFWd1z0UbCP3feplvRsdTrlsfG2eeX1ej1fQ4b5vTqNKX+S9z3LOvzjWzHPLd1bcHIex+bJnh/j0z6LBtaFVXkv7ZjFl9FZ9j3L8aytrEuSWHak5a2oczNXmvly5dFs25Y3D6VvZ+PTXrz9rYizzrezpiy3WyNWUHv+81Ucmyx5siQ9cPU2ujRMIPD0/Q+7BZ3VrWl6Q3iQz+jhrrrvPu5n3YZ6Bveq67Zr8PDo44+1IUGXrXeFHTHO6On17tNQ4FGP6puzgvFADd5XXXWUT1x1IVSpSOdmyJKWGVo00vYj3Wg7vxSBdTspW5dGCXkuit8joW7DqovETHaNNFMhHb7Bwi+IcpyjUduycUP19f5G6/ZRlVrSs5XplEf39fpp1sDyJ3bfs6zDO75D7MxO//fe1GnVDYu1HMemqCs/5qhTGnh8ovJe7DFLKqOz7Hva8ayzrIsTX3ak562o9MmVZr5cebTmbUvPQ7Hb2aS0L8lX59WU/3wVaZIlT/pSA1dvo6sPijemJ/7uM8+IYW6OxlPX7ZBjj3fVsz9MILnpqzUatq+l8R6VXQ661iuaxuxHcHPFvIoIrPVplC/PuSvEs9w2zbrNhql7KWIsVLRdK816Xi37XNB0akj5k7Lvmdfhd5lXTTE96M2zboMLNXIEl83UpLqwNfk16XjWWtbVqhF5q1lp1uh8n7adzU17tQibd5OW6jyz226J2pGeKy9TAtdSRV39eApNGvdRqsxjxBQcI4alnMJpJ3kwXOCkqi7buIIq5mq3oWrd12retroTIHRn52gNqGy1LGmZVDE0Yj9Ousrc9VFl94v0RBrF5bkkT99oZ/ljoc6KGzUfzuu7WppFaeU5Wss+95Z0yqvW8idP/suyjqQyodW8FqkhyU/AaVV+bMTxiVLjMfNk2fesxzNLWVevrNuSphnneKO2LSzrdjYr7YN7ma7STVn+/U3V6sl/UbLkSV9y4OqN56scJhDwhgsMOdNiywWXoN6js0I3EKhirWyVX2cbKgoXF8FHNNtX8puxz/IuA7qar4P1VQyIDrpNQ/M1Q6Z9jdFtnEvowHljFVMKt2bIkpZR87jtPb/8pp79KOWD8JigSq1Oo1KeO/OSM5OHCYg77tVdN6XukCx5fVdKswgtP0cz7HNvPP/yCoK0usvahH3Pso6443tV6Dctoxapq2257kuIuBvbO0dblR8bdnyiJB2zhDI6y76nHc/Ysq4JGpq3GnyON2rb8pRFTU97d/7cutymTAnf3xSlxvwXJUue9CUGrnp265DgaQLVvJNRN1zHbYWr7r/m32X2oD/EYOpDpbudy0KFizfPVHto1m0u6k7mdd269KkOqHV33qzbhpUeS+JNnXbsw7PsrOiaPL/qm7PcFGSe9H2N4A/gLj9GxR24eWqhD4Zl6CbEZje9x9xwliUtNc/Vy/3t19TpLiY0DqjO/TjpqktMRXblIH039VQaOd7TBZzUoSnuqrHUdaOplGZd3WoJeX0XTLMoTT9HA1n2uReff/kob9VZ1qbue5Z1RJQJOr4bkiq+ZvqRfS2407m8PW46a4MFPZ+tyY8NOD5RMuTX2DLa/y53GR8+nrFlXXM0JG816Ryve9vylkWtSHvvxuTom7I8dea/KFnypPQZPnz4Tv91S2ggb+ewW2MfGwIAqJ8ewXTWhiZcFIS0Yh27qlamnerds9ef1dTAEmiV9KcKAACKxeuKTmgtaYRWrGNX1QNpp2eRVv9RBKCIaHEFgILzHnBfMSRyuV0degh7I7RiHbuqXpF2LljWEAXqXhRdywNXAADQKifZVQ+WxsAvv7oHHk0GNBiBKwAAAAqBMa4AAAAoBAJXAAAAFAJDBQAAADLadvif+a+ar++v/9l/hQCBKwAAQEYKXPd5aaX/rnm2HzyewDUCQwWw23v99dftj//4j/13aIbdNY3Z790L+w00H4ErkNMf/MEf2He+8x0bOnSo/0k8zaN5P/axj/mf5NenTx9rb2+3b37zm/aTn/zE7rvvvvKk97feequdcMIJtueee/q/qM9BBx1kY8eO9bY5mMaPH2/Dhw+3D3zgA/5cAAA0Xlqdl3mowMCBA+2//tf/6lVi4Qpy586d9tvf/tb+9V//1VavXm3vv/++/03vpG0/8MADrV+/frbHHtnidu2Trihfe+01+/3vf+9/mk6VvNJtv/32S12X1rF161ZvHbWkoQ601vWpT33KPvGJT3jr1Gdp3nrrLXv88ce9zPDyyy97x7M32nvvvb19U4C27777+p9Ge/vtt+2nP/2pt087duzwP42nY/uZz3zG/u///b/+J8mUfy6++GJ755137Fvf+pZt27bN/6bSAQccYHPmzLEPfvCDds0113jHthY6lldccYW3nrvuusveffdd/xuziy66yPv+vffe885B7Xf4+yyUngcffLCXxsozyrevvPJKxX7pvDn00EO973UOaArya5Y8kzeNtS3ap+pzQeeRtk//ar3aDs3XiHyrfdtrr728fQ32M24bNF8z8pZo/1TOHn744TZo0CDvM6Xz008/bU888YR3zjZKs9bFfmfbb+VblQ+qj9IuPINzTuVblrK9lWo53j3hwx/+sE2ZMsWrIz/0oQ9F1stvvvmm3XDDDbZ27Vr/k+6KMFRA+3bcccfZsGHD7JZbbvE/rZ2Wd9hhh9lpp53mxQo/+tGP7KWXXvK/jbbPPvtYR0eHHXvssTZv3jz/03Rpdd6eAwYMuNx/H0srP//8823MmDH2H//xH97J/cwzz3iTWp9GjBjhtcisWbPGq/B6MwV3mnSiKfBw++8VBiqo9D486UCpgFPiKZPr9RtvvOEvKZ1OEh0A/X779u3d1qXP+vfv732v92rpUoWtEydvRazA45JLLvFayh555BHvIiI4RkmTjtfUqVPtqKOOyl1gDxkyxE4//XT7oz/6I5s8eXLkdOSRR1rfvn3thRde8AreWn30ox+1L3zhC/boo4/ar3/968h9CSYd21NPPdWbL+3EEh0Hpduzzz7rf5JMx+p3v/udzZgxwzuBtc4oKjROOukkr8V1w4YN/qfZKc8dffTR3jpmz55tN910kz355JPePgWTAnkdt//8z/+0s846y8uf69aty5V/DjnkEC8QC84Jne+qRPWv8m8wKW8qryp/KpjT9um1grs0edP4Ix/5iBcYhoNDrV9Bhs4rrVvny/777+99p+2uhwIBXZAoLXQu6bXOTa1T2x7Ou7ogaWtrs1dffdX/JF7e/dY59ZWvfMXLW9on5RuVGdpn5ek//MM/tM2bN3tTvbKuS/ls9OjRXj7MalfY71rWlXe/dZ6p/tQ5pHNXvw/yfXhSxa0AV3kz68ViK+Xd756gMkXHfdKkSbZy5UpvUnCqGEb1oOIa1Vn//u//bqtWrfIuEOLsGPQx2+utF/13zfP7/QfVHCCr3j377LO9PP7YY4/5n9ZG9YPqswsuuMAL+j/+8Y/byJEj7bnnnostB1U+//f//t/ts5/9rDfvD37wA/+bdCpjk+q8TC2uCrhuvvlmu/baa+3hhx+uOGnmz59v69ev905ABbZ///d/72WIPK2GqjRUaKhbVQmk5SvQqaWyT6NCQpXtiy++6AWmwcmmz6qpklTFqO91RTx48GCvcFHQkiUI08FSgaiTImpdwWc6+PpM6wrWoe3Lk4YKWo4//nj727/9W+94ZA0Sddx0FXXppZd6V8v/9E//5H+TTIW/AmUdq6QTXMdWha1aPxctWuS9z9MiqABFV4w6URQkKw+qkEyigEsF1L/927/ZL3/5Sy8fJV1Q1dJaoHx65plnepXclVdeac8//7z/TYkCG6Xp8uXL7Z//+Z8zBXfV/vzP/9zLH//7f/9v+5d/+Rf7n//zf9qKFSv8b0t0/qmQXbhwoVfpnnLKKV7L65IlSzLngSCfBoGJglSlu/YxTPlShZTypfKuznelrT5PkzeNtWz15Gi7RNukc0P5R9ugCyxtg4JLTZpPhVqecyag5SiPBsvRpOUoUFDhq3Vu2rTJqwBE8ynA1cVhmjz7rXNKLflbtmyxzs5Ob51at84x/avC/POf/7wdc8wxdt1113k9JbXKsy51z02bNs2rgMJlf5JdYb9rWVfefK7yV12iavRJy7vKp7qA0Lx5GgG0X+pV0br0Og+li9alvJ907PPst3puVNdrf7JS+anzTRfOtdA5+/Wvf90rN773ve95dXhQDwVlqII7lbX/7b/9Ny9/JElrcT3gg/vZVV8514YMHuh/Em/bm2/ZNxbcZqufec7/pEs9La7qTVDdNHfuXPvVr37lf5qP8ovKRl3kqXFLjWJqTHnqqae8PKV46u677/bq96Ae0HFVcPtnf+bSyNXFv/jFL7zXJ554ovd9Ev1WsaBiiqQ6L1OLqzZQhda9997b7SpULUoKMjXOTjuh9wrEFHhlpcr5r/7qr7yuYLX+qVl54sSJ3pWlEkPrD0+qxNT6qRMqa0EaUIWszBtUfDooyqRRwZQCSbW46PvgqlettVpnlpZJrUsnvOZVoaFKUK+1HK1bBzWoLIPl619tkwJZ7V/Wguacc87xMtX/+3//L1ehpn1RoaPAXFeiP/7xj/1vkimIVOWt5n9doYbHoISn+++/3yuQlfHVtaAKUJVFWvApyk9/8Rd/4QVjatHXtuqKWPkjadI8mlfBjyqg4IJB+SlKLa0F2icFq2pR1pW8Tq4gDyng0ZWmju8//MM/ZMorUT75yU96+UPHVMN0NAwg6vxTwKZCVy0GymeqQJSPtD9ZAjnlUxUUwQWIKgnlCeX78KT9CM43/avzQ+dn1LlTLW8a6zzTsvU7nYMKOJSvlXe0HXqt7Qxeax80r/Y7LwUrWp/KLAXFWq6WqXNX26D91MV7cE6qDFJrRpYWyKz7rfJMF1s6Bro40zGtpn3ThZjKEZWVP/vZzxIvGuNkXZda8TWuWeesjoEuwLKqd7917uuCWvm91ftdz7ry5nPVA8pbykvhsl75S+VHOD/rXFZPQHBhlZWWpfMn6EXIO6lu0HZo3+Lk2W81sKg1TT11UeV31DRhwgQvP+Zp9Q9TA4O6rK+//nqvYSecfkEZqrJFwdXixYvLF6lx0lpc33fl48tbttqKp56xx/7zN4nTz3/1G1v7nKsTd3QvR5NaXNWwoFgoqvxVXlKdobJMcZv2R+WYyu2seUfLV0xw4YUXehcb3//+9726XmmkiwgNP9DyVd/o4ktxn+ofxQZq1FFP5He/+12v0UhpnKXFVcdZDTBqZU2q8+q+OUsZWoWaKjplCnVTqjk5y40rAQU1OhmVQNpYNW8rk+rKWIXlbbfdVjGpVVBjUNRkrMKoVjq4OogqPKrpu3BBogOufVTwoxM5L61ni6v8lQF0gmtS4awTPsh4WocqR61XmUYFmirULBQsBRVrXvpNUEFnpW1Tga4TXi3TutAIp6Nax/SZlq0MrfmVqXUiZLnyErU4Kh2++tWvelfByht5pjPOOMP7rZbxuc99zl9q4ygvqBVZwbGuQgMKZvWZvosLlhslOP+U9ipEbr/9drvnnnu8ViON5WomVQC1BBB5KM/oClx0gVxdSOuc0Xml7VAlW4sgL2s5Wl6Y1qf1ivK0tqcZgvGWagVUWRhHx1uNBCo3FADUIuu6dAGoMlaVY60XX2nitkUXquqaDLRyvxuxrnroIkyBpnpt9LpeClhVN/zmN7/xWsryTPqN6gYto1FUPqk8jiqz46b/8T/+R6YejjgKiBRINaMXN8p77/3efrbiKbv/kSdSp4cf/5W9/kb3Ht8kihFOPvlkbxyo6rdqihsUY2honfK6yq3LL7/c+004rkmidP/Lv/xLL6C/7LLLvN72cHyh1u8777zTa6XWhZ62RfPp6RKq+9T7rt9Wl6lJVOYEY87j6PzMFLiqUP8//+f/RF5NqStFTcjayL/7u7/zujJ00uV5NIaCOV3lqsVDFYUqEEXzCjrUHV09fe1rX/Na71Q5jxo1yl9KfgomdVKqYlR3aXhSS4MqNH0fpuAgKtBNo3Wpe0KVvdIxmNRqF3XFJFpPLUFyQMMHdPWiK/eAXuszfdcoKmA1/lTLVWuULlrUsjF9+nR/jtKJpgysIEvzZ6HuhjvuuMO7GAoC/DyTMrh+q2VoWc2gLhi1UusqU/leJ51eq+tEebrZwuefxtKqezNoqf30pz/tz1U7HTedBzofqs8RTWpt1vkbzmONonWr90F5RsGjzr04qpgVYNVCv6s+z8O0Xq1f26HtyVrw56GASq32QZCcREGkKhEd91pkXZd6cIILxvPOO8//tLHitiUqjVu131LvumqlxgMFiaorVB/qdZ4GhShq3FEdrqBDZXCeSb9Ra11UcFQrLTOqvE6btD21Ur2k+iCpDCkKBaFqrdZNUsuWLasIJkXnzrhx47xyTYGr0k3xh/Lzf/kv/8WrH7JcgCu+UkOI6hblxaj013I1NFSxn8YLK175xje+4cVnqrOzUmu4enBVj6SVr6rzMkVgQUuGdlpDBhQVB5WE7vj6x3/8Ry8BVdCpa1hNw3laPxSgKfF1gmmowLnnnutdkamLQK1XUZNOZq1DrWoKmGo5uZXoGken7dXVQ3hSRaYm6qSxkXlpH1UgqpLVpNdpJ2Q9laSutJT5FEAqo2pSt9/MmTO91uNGUYCm7gitS9OXv/xlb7vj7mTMGvirFVkXMfXSMuot/OPo5FTXkuj8UBrryl7jTPOcuLWqPv806bXGFdXaAhmmgkQtjSr0q8+RYFJZoICu0YKuTbXqq+JNOk/0Xa3nisqBtGVr/Sq8tT2NbH0K6IJHYxezUstRnl6tMA0rUa9V0j6LjrnOHU06zs0Q3m/1QKks13mk3ho1guh18F7q2e+4dVVPjVhXrVRmqJVKQ1Y06XW95UjUeaGLUQVz1fSZvqtWTz3UG6iBSOVY1L41wnFHT7D+fZtTx1RTz4GGWigQ1b0M1eex4igFp2oxV3wjmmfp0qXesDNdhOqGtDQq+7UMlX1pdKGl80UxjYasqUzNQ/uTtVxVnZcYQWjDNb7w6quvti996UteUKJufA2Y1U1Aan5X4PXggw/aD3/4Q697RVOQWHmpa3PWrFne1ULapGZwRfjKiBpqoIC6Ftp+deeqUgpPqiwV+OU9AFF00qu1RsGTxtNFTQrSamnJTaJWP1VQKow1DiUoqHWMso5lzUJppOXpJNJVoLopNGwkS8vGrkAVjAaSK/+qFVKBpD5rBbWGVJ9/mhS4NoICceXLoAUo7jxpRourzpcgYE06V3R+BfPWQmmoZYYrZy1fn4XXGwSwzboI0oVtWjAZ0DmnbawloFD3b9yTMKKo7FJXYNZtyyvYb7XWqAVfky6Eqt9LPfstUeuqnhq1rlqoRTCcj/W6ka2E2h+Vz5qihtnps+B7zdsM6uFUD1hUg1TUdMQRR3hjKKO2NysFbNonNYw1svU48KefOtb+4vOfsQP7HeB/0hy6Ufmcc87xxoDq5uOoixq1XOr+Du1zmC5E1YKqp9DoHgzl9d5CFxVZqbyOzZnKJApyFEjqqlMVk3ZcJ70KcUX9GoOqfxtFY5pU4f71X/+1N7Yiy6Sbuh566CEvmM1LBZJOzixTPYWX0lLdyLrZIG5SV6wqh0ZSptbViQZU664+XXioZVTvG90aqMJe49LUQq2CQa0WjS4gtDwFEwockibN04zCKYmu6JWm6lrV+bGrUL7XlBS06LtGV+5BWaMbS1RYh88VlUcKpkTrVXrruCeNW0yi3ocgOA32Q8vXesLr1XZoe7Rd2r5GUqumyois6aiCXhcOSccliX6X9bca9qWbMBt9jCW83+rG11AX3TWsi251Cep18F7q2e+4dVVPjVhXb6WGHpXVaqyJGh6jz/SdgrxmtU7qAv9//a//5Y2HzDPlGZ9ZTfdZaNylGnDUo6sGhqDcyNJtnuY7t95lI4cdYrP/7GTbf799bd999rYvzTzdrrjo7NzTnLP/1F9qd1/84he9ekZPRoi6f0Lpo3HZamiIujjVOaBHTOk4q5Wzt8h7DGIDV40d1dimcHfCt7/9be9O8YC6XnQDTa1jy8LUBafuGwWuea4wtX36nZqn81Awqis/dUcFN0vFTUoLzavf1EKVoLZTGSk88D2YNOhcGUqVYhGpgNeNdWqhUIGkG+jUCq6CplFUwKi1X499Uutm0qQhChoOod+0gvKFbmLRv8rH2u9a8wpKNBY86lzRpO7e4MJLFynKf+rKThqnmiT4rVoqtDzR8rWeqPVr0vY1ksovtUJluejRRZlaoRR81UKtLcG5ovMkSb3rStPK/W7luoqgpwJy3ZylHlJd5GeZ1Oiim4DUY6i6vhZqadd61RulZ4Krx1i9VDoH9L4ZeiJ9dTOfesI1fK+Rwxx7m9jaVYNlq6+4FMVXj41Uc7OesVkvLUPjI/Le9adAQcFl3q5RBdv6rcax6mosadJ+a/xFrQF6cJWoVhoFd9WTTqpmDBpXK3kwPEAnqR5HoRt21J0fNb6pVqrwlS90A5+On4YMqEBoZFeEuooUHOpqUXcvJk26Gv2TP/kT7zfNpmOr1mWdLwqqNUxALQr6rNbWAZS6aZMmUZCpvKfuVLWMBZ/npQpG57jKn3DwWr3O6qmR1H2n4SW6aTJoTY6iPKXHwaiHJmgZzEuBvsoztVCHGyKqhdeVNF894vZb5YierRloxH63Mo17KzWQaHiPjn9UQ4mCen2nx05p3mbQ8LzwvR5pky4q9Vgk1TF6rFWtVM9qOXq2qXoQNKm+yBtzRLngrFPtmQ2/tQX/fI+9+fY79s72Hfb337/DLrvultzT/Fv+zV9qd3qakup1tRpHjQlVYK/z+4EHHogMnBXTqRddx3nBggX+p43RykA9NnANrkIUtetqR83sKtx1BarXGtOowlutWrVeBYVpfSpUNBg9Dw1VUAG8ceNG/5Ns1CKm5mn9VidG0qR5VJgVrRVNwZtuctPQAB3DYNiAPtMzCuuhQFtpojTUeBtdwWpMqzKvCiatS89KFLVe1BuYK5jQhYPGc/785z9PnHTSKjAPApBG0j5rSISeHKBuJ911rIpQreb6YwO6OUqv9ZkekaV5NK9+o9+iMVR46+kUahnVmPp685cqNV3EannqTm7khV0WqqD1R1500aMxbFF5V+eRLjzVYqoL6rxlXpjOWVV8f/qnf5ppXdV/YKNR4vZb2xcEjY3a71ancS20/nADiV7rs0ZRna2gVMGryulq+kzfa2r0xVkW2l/VW9WPAQvKznq3Sb9XTKOLIg1FUX2hOr5e//bjh+3vf3CHvfZ6/ctKoiBbeVgNIzp3q+8t0Bhe9QhFxVG6WFNdpN+qgSXLM3d7kvJiXN6PjcSCH+hk15WqDrCueFSA6bX+nGYw0L3eE0uZSQGQnt0adTLF0W/UnaMuvVbdDJNXK69CqukGBLWyBn9FSZPuLFRXepbusiQ6OTQOSoW8uibiJh0fzaOuC6WFpqw30ajw1Emm5dTSeqvf6LdaRiPyhyo6VWh6aoLu2tSkIRIKdIKB8pr0Wp/pu2C+OXPmxFaWyEdBpR7BpbRWsKl83QgKfrU8Df5Xy2urg1cFaxp3qYvxv/mbv/EqGZ0/yr96GogeD6gLIc2n1kB9VsvFtLpMtZ5vfvOb3k0czVxXFq3ab2nlumqh4EIXZLrfQZNeVwcneUXVQWqMUT6vps+iWlobWY9piKHuag/qCL3WRZTqJLUkalIPVvC9Jg0tUFCrRone6MGfrbCt2/I9i7VWegTjjTfe6D11SfkzCOrV0qreZ/1Z/uo4SvNoXrVYq9dSsVarJPVuxFHvtGJMDbvT+RnOC5pi/3KWTmwNYFZ3uipeXQWpO14Df1UJ6wHrChy1AjW/63mZAT1gXuPG9AyxLPRQet38oO4oXeFquVkmBQd61JNaufQssSxUGOjkVGWnfVNwlEYHXQPaFbhrvTqBsgRC6orR/KoQ9ToYc6LlVU8KaFRAKcMp4FTBogOuyjPLuvT0h2AMbUAZXHcQhyt2vdZYr+o/AacMr651VWpZ6IpO26tx0DoG6saPmnTDndJYJ4sKJn2mux2zXO0pwFUlon1TxaJ01GOm0gIVpbkek6YMrxtLlE8UwAePwqmmAEj7n7ZNuppVAarAX38RS3/eUBd2GjengiBoldKNgip4tU7tt/K1jqdautU6mPVKV4+dU77RY09UwWp9CqyyyHM8g3Mi6oJCeVDdSzqGcZWX8m7aOZE1jdNoe3Q8lQeUlnkudLPQRbS6MdWTpPJBr9PyW5K8+61eC/21Jt3QqRZ7dVkr3ylQV/5VS4lusNR+6/4CHbe4fB1HPWdqZdI53Kx19cb9DjRzXXn3W0GxgjbVDaoHtE79q3sqlAf1ucqOgFoit7jAMk/LY1APKS9LuN5Jm/S7oEs6vB3V8uy30lvP+VZMofpAwZTyotanPzSg+k9PE1DZre/1r+oODcXKWs/noe1RC7S2oVF/OatRov5ylsrhYHiDglc9glSfKa0UR6mOVL0UpuOoRhfVRXrGapb8o/HvauhS2ojKXh0r1enKUxrnrzI/qBd0AaIbWtVQJlqnehpVZypWCB4bGSVYl7Zfy1aPvmJK9Wjqr3DpuGj/gqmPu6qMrI3UnaIH/Yev9nRnnwIIjZEMKAH1RwGCnRM9jFaFg+7QzEIZXo/b0hWDMm9WOsl1ougvNwRBYRpV5robTwG3ElmBXtrVpLZJ26jARAdPJ7IexZVGB0D7pBZpHcSkzBIUFArOVKkoPXW1rd9kuRHkW9/6ltcyrrGseStabZu6tjXOWK2JWWm/FLTo90lpqO8U+KvFUb/RX/DI0uqq5arwVuGuIFR//lWBctod3aqQdJLowcnqDlIa6kSOSxddkChATvs722qhUaWvMbRBwab9V5ppHVdddZX3mc4bUf4PKgtdgGhskVqp9bejs9Bdn7p41PmksU3h1vMkSjM9q095T+dmmuCciDqHVGGoMNF5Epd/VZmmnRNZ0ziJyiIFF6JKJi0f1EPnudalvKd1qWKuRSP2W+VC9fml7VJPhm5e0XhyXaCklWNZNGpd7He2/VYZF9xcrG0IqO6Q8PNztW7dKKz6IM/QGC1LeVnrqkXQE6F9i5Nnv3Ueq9wMp2VQTup+DN2XobJbaSJKF9X1miepDq2VymkNHdDzjRVL6Hjr4iDJtsP/LPZPscpee+1pnxg/2vZ3F/RxNr/0qq1am1y3bz94vPX9dfSfWlZdqrRU3aaLbNU7isdUV0TlU9ULKsey5h0dS9W5Og764x06vqorlFaqz9SjqUYVDenRenUTnRo01dOoHis1OKnRUxcb+guoSY/gU0CtGFDr0YWKeoMU22k9KourxQau2kk9ekELCTK8xvyoIgvGn6jy1gDfcKuOfqcKXi19WQf/KmPqClOBZJ5hB6rAtU0KJrJSIaEDrcBJLTd5Ale1BqtlSSdd1itqJbz2KVwoJdGJqYyljKggR5Vm0pVuQIGnWg30zF2lSdbgVcdWGVCZXhlVz33NSgGiChm1mOt1HKWvAhsFRwr6amkpUeujgjCdHGlBr46RThSlRZZW/6yFrroYNY5VV7RBAar0O//88728GwSJwTHQn5YMjoMqQRWI2o+LLrrI+yyNrjL1dAZdlAStx0ktnwFtky4UtH4VLGmKELgqf+lCTudRs4PWQDhQ1rmvyjOvevc7idJC3X9qkdDzGTWuvBkVu+RdF/udbb91rur8U5mYtg8qQ/QUHM2btXwX7YPqIa1Lr/NQWaP6SAFPUrnTqOOt81zBucrP6lbDZmlG4HrAB/ezq75yrg0ZHP8n2x/6+a9s/i3xrZCSFLiGqWVTcZee6tOoVmkdS9VlCibVmqqGO50DuodDx0n1vuon5S31oiouUsOmzhF18SuP6q9WKl3TxhHffffd3rarwVP1qOrwpD96EjtUQIW0Dqa6ERXgKfhSl6E2TlTRKThQN72iaiWcgjsNJVArkSr3PAGldkwbrQoi66QKLG/m1n6okg2uVlRYaJ+SJiWirlpVcOhfZergCjGNTnqd8FqGDrbWmzRpHgUd6i5RGoeb4pOo21TN6rrpSr/VMdDxSJsUEOn5rlqXBn1naQkNKO10zLRveq1jqMxWPemOb2VstRjmyRNh2id16yn9FWhH7UswKR2UZzWEJdwTECdrN5duIFTFoRMxaIHTsVIrsM4VtXiLxsZpqI3mC/KJLkQUdGsd6qbMQkGqglddwOgRY0o75dm4dA4mzafzT0N7suSd3j5UQJWt0kDnhvJ5K4JWUcGr46e8p3Mz6zkfVs9+Z6GLBZXV6mrTMWrWeiTPutjvbNujvK0LP53Xeq3zTa+rJwUHmk/nQNY6IUz1kM6bWqYsLXSNOt6qR1RmK71bpRlDBXa8+54tfegx+5clD8ZOj67oempGnKihAlFUB+k4qRFRx6IRlN81DE55TT25atRS+atyUflCFxd6hr7ypLrvNbxDdUnwxw/0J8gV5GreNGqp1fYrnlQ9qnUkxRSxLa4Btbgo2tbQAQUDWrhaX9TypOBRLW4az6erOVEApMTTBuS5KmwVbacCV1VGCkTz0P4o0bSPefZNlZ66bVX4ZKE01jq0Lh28LIICUIGrMpuCiSxX1wr8FeBoTIla3PIWiK2iAj0YE6UgKYkCMAWt6sLIctJkbS1QS4CuBnXlqfE4Sl/lf6W7HrESjHHVg+q//vWve5WcriSVpmq10ecaTpDUMllNQbiGGKiyUneKCtckWpe6bfJc0CnQVp6rrhBVeSjd1eKqC5SotFQaqLBSHk8a0lJvi4yWr3W1skILqGBWuiiN8mpmy2NA5Zj+drnKJFUkzZR1Xex3tv1WvlJZrQty5fEkWreWrwuoLGV7K7XieDdLM1pcGyVri6ueca5yX0/dyRozpNGjwjTUTn9CXPFIuG4IU0yl3jDFHoqtFP+pVyBPWa37ZNR6q5vv1GKsC4e4PK7tSA1cgV1d1kJXlZeCVxVs6ibRCaQnbKjnQUFbcGLrhFMwqO5FBZ56r6tIjZPL0iUYpt+qlVcntpYVBIlRtFyNI1JwrEIsK12cqktcQar2UbQsXZjq4kl3AWu9wcVpmOZTQKvANqk7qMgVWz3Yb/Z7d1Dk/b700ku9clk32Oqvgermc+1Pkt4WuBadehXUKKXgVz2qauQL6qIw1Td6JCuBK3Z7u2tl00pU6Oz37oD93j32m8C1ZxG4AgAAZKTAtVUIXLsjcAUAAEAhtO5PggAAAAB1IHAFAABAIRC4AgAAoBAIXAEAAFAIBK4AAAAoBJ4qADSZHqx8w5+s9t8Bu58v/mSM99fsAKBetLgCAACgEAhcAQAAUAjlwFXdmQAAAGgNYq/8aHEFAABAIZRvzlLUz+B5oPF0bq1du9Z/B+x+2tvbqV+ACMRe+dHiCgAAgEIgcAV2EX369GFiipwAYFdB4AoAAIBCIHAFAABAIXBzFhDjj/7oj+yCCy7wXu+xR/I13vvvv+/9e8MNN9iDDz7ovQ606uYsuoQRZ+fO2v5A4mGHHVbTObB+/XrvdYCbs7CraWT9wLmRD4ErEGPRokXlgumll17y/o1z8MEHe/9+5zvfsTPOOMN7HSBwRU+rNXD9u7/7u5rOgb/+67/2XgcIXLGraWT9wLmRD0MF0Gt0zLnFrj7jMP8dmuGYL91s35gx1H+XnX53881fsmP892iOWo8PsKujfkCAwBW7lo45dsvVZ1gjijd1/+hKOu1qWoL50rqMiuqRb59j55zzbXvEf49e7Jgv2c3fmGGNCH85B7BLoX7YJZCKQEbf+ta37KMf/aj/zrzX+gzYXXAOANE4N1qnR8a4HnbG1XbF9MH+u8225LJLbNFzen2YnXH1FXbo3ZfZC6dcYaVZwt+XVP7ebMVNZ9v8ZaXX6cu+yey882yCrbCbzr7D2rp9Nt+WHXaGXX3FdCuvYfMSu+ySRVbahKjluN9433Wn7o1TXrjMvmtf6NqujMur3k+3o3Z2sKM+Lf+8Cf4bt9ybnphk5x16tz9fzLIT9y/Y5pvsiUnn+cfAT+ON4d9V7XfKMr0r3a4N7XZMJT2tnIT1VKSFRKRXHosXL7YZM2b478zGjBljc+fOtX/6p3/y3n/uc5+zefPm2erVq733Uv0baekY16Ez7BvzPh1Kn3tt7lcX2/P+W3VFn/rCXLvBvmjzPh2kcXieoTbjG/Ps0Ls6zWbNson2pHWe820z/3dfXay5oueJa42tdZ1a3tAZ3+j6jTzZaed8u3JNWv6sif4bt9zOX3zCZh16lz9fzLIzpVOn/eITsyxY/ZOd59i3N4Z/V7XfKcv0WkK7NtTunftV85IzJD2tnIT1VKSF+OlV6xjXb37zmzWdA3/1V3/lvytp5RjXmsovp/Z6qcPm3HKKvRAu07xy6lC7O6FukPQyj/ohkJ5WTkHrB8a45tPyFlfvZJv0hF129tl2tqabNtv0K+a4U7/LhPO+YPbd0vc3rRhs07/Q1bRfOlk3u5PC//1lS+yF8Hcpyx58ypGugNH3XSdV9WeHHX2oPeG913SZLbHpdsWc8FKilxNn8PQr3Kn23VzL67af+t3g8+yW0O+8E3GwOzGDee4+1M4LF2S+mvZv+inlY3DZks3umNxit3iHxf/N5gl2Xug3ictUYXLeYFcY+d/f9ETp8whpaZW0nmXztewVpcJK39dRKEVRAfTDH/7QvvKVr3iTXocLpd5gqEufX8xVt76muXavfdrmfalyZOrgT89zYdENifMccqrLM95y4gPSLPMEallnKWj9rQsO9Zn/u0Nm2c2h33mB2iEucAvmuetQmxUOdH3dlp0pnU41u6E0z9x7N9vEWTfbzV/UR/5vNk+0WaHfJC5TweasQ1yw6n/f+YvS5xHS0ippPd6Qjs4n3Tngp0lVkF+vIpwDkrv8qrNeqgf1A/UD8mlx4Nphn5lutuS7oSukZXd4mfzI0Hmxecl3y1dby+5YYpsHH2pDvHf6/WB3oRQKFp9bZIu8N9mWbU/c0e1Krvqz5xbND71/zhbd7TL74LbKQipqOXHcld0l5Znd8r7r9mnCKVYxzrxief6+XBbaz/LvjvQL0w47coK7Mq3Y3/muQPVfh9WyfyvuLs/z3KK73fWzPgrW1f036cvcbJuC75e5Y1aet0pKWmXa9t3Y84u/HWrFe94W3+WCmEPaKsc7Ptnpt5yKm+eGe23zxFOt4p6gX9zRrTWwmyzzBHKv8xj7zKfNBXrhoDj43ZH+TWLH2JETN9u9N4RaIx/5tilu66ZqW7Ol013leZ5ffJdpsU/eFayr+2/Sl/lb2xR8/8jiiu2pkJJWmbZ9d5er/Kq3XqoT9YND/YDsWhu4dhxpE8xdqV7hrs5uCaag66XL5nIODgy2NuU87/cr7OdRF0o1Lzv6M13RlpdT0b9QEvWbOJtf2Oi/8j23yZ2mlSqW5+1L6EQOeL/z0+KwNveq+zwbX6heco37V73Nbl3dPqoSu8znfmZP6ArcfV514d5NlrRK2/Zm0Zilz372s3bttdd6k16re6i3UUvlzTfrKQBuqug3LumWxs9vciFVpd+WI6x4WeYJ5F7nMUfaxHCgF/B+d4i1KUob2uZedZ8n6hyI2tbc6ZThHIhd5vM/s1+ohdZ9XtWw202WtErb9mYpyjmQ69jVWy/Vqdu2Uj/EypJW1A+7vh64OUtjX4Km/K6pMa32jVi2xivdUtVtpOvJXmbIoa5gqkUz9i9tme7K9xL32WVLbLC6lG6p7ILLrmePzfnnn++NWbrnnnu8Sa/1We9xjH3JBTLzPvGLrq7zyObHXUTN50Az0iltmc/b4q+6z+bea4doyEHNjxbr2WPc+8+BWjWzXuoB1A8N2vbsdt1zo/dpbeC68YWuK8JaJP2+3mUHvCtVV4iFBnwf1lZbERAYfGhVh1LcFXMgbl/CV9Ex8ww5NGVbm7B/mZf53CK7xB//dErM8/gS06oZ257DX/7lX1aMWdLrOXPm+O96Aa8F8knrDN3IM7TtEP9Vl25pHNe62UC51+nlb79lNSzcyhozT+o5kDGdcsm6zOcX21f98bGnVoyT6JKYVs3Y9hx6/TlQi0bVHWE5AkfqBx/1AzJqbeDqMubdGtReMej9MDtjTsZB7lG/P+wMO0Nv6l12hdAJ75b/hYgB7blMOC/UBeKuCs9zp9qSO0Ljk6rE7csXNLDJ/53XveLmCd8g0DGn8q7JWA3eP0/CMt12VXcBed1TGpR/y9WVY7lS0yrDtjdo7Jn+TN/AgQO9KU0wX613bzdOKJAbOsO+GHGjkk2cFequPsa+NGuibb73jtQbrOqSd50uwLvrycH26XnhlsmhNuOLGvjq/87rfnfzfDH0zNJjvlR5V32sDOmUW8Iy3XZVDxHwhi/opq2bv1E51jc1rTJs+259DuRUd92x0V5QWfyZ4Nelcisz6gfqB+TS8qECurPvphWl8SylcShX2KQXfla+QkrT7fdXTFK5Ef1dzmV7XKHw3SXmCgV/GbpTss7uhs1LbrIXTgm26TybUDHAPJr25bIlgyv35YnLKgemX+LfNRnMc+TPvTs8EzVh/1KX6a7+S11Amkr7EdcFl5hWWbbdv6nCS7fq0nBX54K9G+41F+z5Yx91B3xEN/LmezvthVP9eW6eZRMrbgZqjlrWqTvk5957iDcutPS7efaJXwSP5BJ1v/t31QfzuHNATwBIlDGdcklbpjsHSkMENJX2I+6G/8S0yrLtj9xReuKBvk8bUAtPfXWHyuKbbIULqkq/PdJ+ftkSS8mFZdQP1A/Ip0ee47o7CZ49l1YQNUqr17crO+6448p/i9p7RmqC4Er6hhtusAceeMB7HWjpc1x7oeDZpM0OjgOtXl8R1NrS4+qHms6BZ5991nsdaOVzXIuE+qG4Glk/cG7kQ+Batw6boys//12YHsr88yNbWFB4D3E2q36wNnrWrh+46oYhPdy/Oz20/+dHtjCQ9B7yb4l/EGF31NNdlLtv4Er9gGTEXvkRuDZZM69wtezKMUsrKJR6oV0/cE3WzBbQbn8pSjcuEbR2Q+DaO1E/gNgrPwJXoMl298AVPY/AFeidiL3y64HnuAJoBgUnTExREwDsKsotrgAAAEBvRosrAAAACqFijCsAAADQW1UErpdffrn3Ibq0tbX5rwAAANCTGCoAAACAQiBwBQAAQCEQuKLQruvoYx3XNf8ZqQAAoOf1aOC6Zf0Ke+D279n3Hljvf7JrmN3HXDDlv2mhnlovAABAK/RM4Lplhd1+++22fssAmzhppP/hrmX5Kv9Fi/XUenvKRct22rKL2v13dVh7nXUQ9QMA0Kv1TOA6YIKdfvrpNmHCcBvgfwQAAAAkYYxrRmuXms3u0N+D75o6qrrml84ufd6pN+5/4Xlnu9+XrTW7zs2r35fnccteWjVUM1ieN7nX+l15GzR/abbs603jFqS/d9+nY7Y3dlSvO9wC1rrPO/S5W2m34aRrr3PbVJo3mP+62X3K613qXnvfaTlup0vL0dTh5qlamEvk2R0dlfNc537nf93FzVeeJ2aMa3lf3AEqb7/ez65KZ39Zo+bY8uVzysssTW5efy4AANDzCFyzcNHLqOkuJlzuv/dVvc1s7b1mc1yAWfF792b6KG9V0dz8He778ja4f+9sdFQ1bYHtXDPfpizvtEXjl7jXS2x853Rv3y9ds9PcVzZnZrg7fa3NHrVIX5b/Jvqyi0fZqpX+1860Be7zJbPchk+3mYvG2UK3nNK8C+20O2dWBp3to+zihctsmb+snTuX2Wmr3Pq7Rd/TbIE/z5r5U/zPqgT7Yous48rS9nvzn7HSpfPsUDDsL0vzTpnvrzeYFrhvAQBAb0HgmsHap0v/znKBm4tnvMnFdC4oMhs/uvSduFjJ+86Fad7/gnk1LQhFQO0XVX6nSbGdPB2K4yqW5yhmneXWG/wmWGbW9WbmAriF+mH7NDvNLW/WEhfAtbu3nz7D2+cua7z/jxsVGmPa3m4Llu2MWO8sW7jsIn3ta3fbfamNn3NNKIhsD31fMu1iF1Cu9A9ALVyinbGwtP3SftFCmz9lpd1b0eoKAACKgMA1AwWaCgo755S63zs6zGbe6TU01hYYOureDw8VmO718ydbUsf68qqKH2NMswVrLrVVM4Ou9Q6XNtVd8b5Zp0Usc5qNqwgi19p1szv8ZfnTzEWVLdN5TTnDKu/dyrZnAACg9yFwzWjBzlIr6/z5ZuPHuw9Wlrr2a7kR/ToX+CpQzRWQucg5aDXsVdpd8Los6FpfZssWnmZ3zuyIDl4TuaC1Y5Qtskttjbcsf7q0upUXAADsrghcM1DrqG6GWuMC1YsuckHsAnMBmoslXUS1fJFCrmjB58GNXd5QTTfNcRHrFBeIrvG789escQGxmnQbJHK9raLhBeOX25XVffGdd0ak01JbtXy8fVoB+dp7XdA635YtmFbZJurSHAAAQAhcM3haNxu5YFMtrOrW96bgRqnxMZ3PnS7m8uetuLHL/U4tiMvD37vPdLOWzHGvg1Zc/UEBfe995f5XXrebYv9YVNx6m2DtdR3WZ/Z1la2rLlq+s3OKneFFoyFTVtpMt2Nry/OudRcEV5otWVBKv/bRNt5dBVxXXpj7Xk8h0N3+/idNp/WXV6/t07CF8I1cAACgJ/VM4Ko/QPC979n3NP30GbNnflp67abe+Ee0RmtoQATdrLVmgf8mZMGaUmtsYIp7XR6f6qK0ZdXfz3Lfu2XVK3G9WegRUuXHQnU9CqpzeuiRU1XfTRk32p6+JvQIq5lX2rglC6vGlTrjL7WFl66ymS6qLo1fnWl3nrYwtG3TbMGS8bbIXR2Uvh9lV64aZwu9pxxUrrP8iC03jZqz3G1S8Bs3dT2HK2JfSo++mrN8ubtA6Hpkl6f9Iluo9QfbN2qmXalhC+4AR16YAACAluszfPjwnXpxwgkn2OWXX+59iC5tbW3+K9RMQeSdp9nOVt1ZBgAAdkkMFQAAAEAhELiiqbxufT1CoXN6ZVc+AABATgSuaCrvL2eFH2/FcAEAAFAjAlcAAAAUAoErAAAACoHAFQAAAIVA4AoAAIBCIHAFAABAIfRc4Lplva24/fbyX8y6/YEVtsX/quj0p1qDP9vaSj213nSlv1gV/HWr8l/hAgAAyKGHAtct9sDin9q6EZPs3HPPddMMm2TrbPHtu07wunyV/6LFemq9yabZAv9xWGvmh/4mLQAAQA49E7iuf9KeGXmCnT5huP/BABv+ydPtCHvcnlzvfwQAAACE9EzgOvyTdu4ng6C1GNYuNZvdYdanT9fUUdU1v3R26fNOvXH/C89b8Qej1ppd5+bV78vzuGUvrepBD5bnTe61flfeBs1fmi37enNZ67axwy0j6OLvsNluozvCO+wSZXZHh9uP8DxLtZl1yLBeAACwW+o9N2etf8AetyNsYm+MZ13wN2q6iwmX++99VW8zW3uv2RwXYFb83r2ZPqorGO3Gzd/hvi9vg/v3zpqD0jQakzrKFo271NaU/+rVQjvNVlZuc/sou3jhMltWnmeZnbZquo2qOVrOuF4AALBb6h2B65YVdvsTZiccP8EG+B/1JmufLv07a765QKo0rVliptGa40eXvpNpC0rfzdIb979gXk3hv3TaflHld5qWeD8yezrUXFmxPEfB2yy33uA3wTKzrjertdddaSvnr7FlF02zdv8zt9U27aJltnOZ2/iydmvvmsEz7eL5NmWln2A5ZV8vAADYHfV84Kqg9f51Nun4T9rw3hi1Ogo0FRR2zil1v3d0mM280+zSNbUFhqLu/fBQgeleP3+yJXWsL481q5a7gLwqIo1U3a3vppmLam4dzb5eAACwO+rZwHX9Ay5ofc0Fraf32qA1sGBnqZV1/nyz8ePdBytLXfu1DL28zgW+ClRzBXgucp7Wq2I6F7R2jLJFFu7Wd9OlZ3gt0QAAAI3WY4HrFgWtT5hNOr33trQGvJufXLC5xgWqF13kgtgFZssWuljSRWjLFymEixZ8HtzY5Q39dNMcF7FOcYHoGr87f80aFxB7/fyNEbneHEaNm2KdaQNo197rgtb5tmxBuFvfcWlUq0zrBQAAu60eCVy3rLjd7n/iQDteQav/max/4Hv2QC98HNbTK93/XLCpFtaga79PcKPUeI3CjNDpAjF/3oobu9zv1CK5PPy9+0w3a8kc9zpoxdUfFND33lfuf+V1uyn2Gf5x682h/aJLbVbndBfwhlaydq0t1d39fWaXnn7QPtrGu6j9uvI8/vej5tQ8VCDTegEAwG6rZwLX1161V1993Bb7fzUrmH76jD9DLzNaQwMi6GatNQv8NyEL1pRaYwNT3Ovy+FQX5S6r/n6W+94tq16J681lmlvWEht35UwXAPtjV0fNtCtXnWYLdy7whyy4eZaMt0Uumi/NM8p9P84WrplvU5bPce9doOktSy3W/jLcNGrOclvuovPyciuag7OsFwAA7K76DB8+fKdenHDCCXb55Zd7H6JLW1ub/woAAAA9qeefKgAAAABkQOAKAACAQiBwBQAAQCEQuAIAAKAQuDkrxV57cXMWAABAb0CLKwAAAAqBwBUAAACFQOAKAACAQui5wHXLelvxwO3lv5p1+wMrbIv/VdFdPNjsZP9PuLZST613V9R5ch8bPLiPS0/+ziwAAL1FzwSuLmh9YPET9tpHjrdzzz3XTTNskj1ui29f4c9QfI+v8V+0WE+tN9X66+zkk6/z3/R+s+7ZaY/OC/39XAAA0ON6JnAdMNw+ee7p9snhA4IPbPgnZ9jIV9fZil2l2RUAAAANxRjXjNbfb3bxyWaDB3dNJ1d1zd9/cenzH+iN+1943ovd78vWm3W6efX78jxu2fe7z8OC5XmTe63flbdB85dmy77eLO6f7X7Xxy3/Ou/1yXrtvZ/dbfs865e6bfLniZzPfa/PJ8+xxx+f0zWfN7l5/bkC91/cUTHPyRdfZ+tDy7v/Yv+7i5fa+s7Q9g3ucPta1a3vbVtH5Tyd7nf+12Hrw/vqzccQAQAAepteE7iuX3G/PTNykk0IGmF7ExddTf6siwkf99/7qt5mtv4nZnNdgFnxe/fms5O9VUVz85/svi9vg/t3ad6gNIvjF9jmR+fbEbbITr7W7MuP7rTNm3fao6eudNs3uzLoU/f/hXfatOtL83jT9afZ0gs7rLM84zS7Rp9rmUfM75rPmxbY8f5csr6zw661S+3R0DzXTzO78MKuAPf4a9znP5zlEmK6XXjXOLve377NmxfatKUzK8ekDh9lF1y/zO4pL2+ZTVsz3Sa7oDdM673w2tCyHl1oo9bMdMv3ZwAAAL1CjweuK24v3Zz103UjbMYnh/uf9i7r/Vjo8/PMBTal6dEfmgvuzMa2l76T468pffd5vXH/C+bVdE0oQhvu4q7wd5p+6P3IbG0oMqxYnqOY9fNuvcFvgmVmXW8ubmWnXu8CS/+QDJ+10OYdsdJ+Em79/M6iink8w12g+uXxNvc7lcFhurX2nbvG2/XXTLOKxR1/kd3zZbNru7WAzrLr77nIhpdnbnfpcKmNnXtNKLhuD31fcvwFLoB+6mn/nbj1zh1vXw4va3i7zbpmoZ1qy/0PAABAb9DjgeuE00s3Z50wYp3df3vvfLKAAk0FhT+YW+p+P/lkswtdXPblR2sPDNW9Hx4q8Fmvnz/ZD+tYX25HnGGzKoK+UITuWWpLfzDe2qsCQ8/xp9nnf3BnfOtxlPX32lOPd9rkcnd9aPpspz2+puqus8+fVhHglkyzURXB9VrrrBp6MPjCRZUt3VrvEeMqWn5L2q19rP8SAAD0Cr1kqMAAGz7hdJt04ON2fy+9O+uazaVW1nnzzMYqoHmq1LVfy+OnOl3gq0C1IoBK4yLnipbNXdER8yuGCVRM10zzZ8rKBa0nj7K7qoYebP7yGV5LOQAAKB5uzsrAu/nJBZvrRpjNmuWC2GvM7rnexZIuAnr8Lou82UeCz4Mbu7wbpdw010WsR7hA9FG/O//RR11A7PXzN0bkehtumk37fGf0ONv777QffP60iFbMBMM/bafaooqhCIl+cGdEui+1NY+Ptz9RgL/+Xhe0zrd7qoYemDuGFdx6xz6+KqJ1eK2tdRcnAACg9+iRwHXLitvte7c/YOu3dLWurnef/fSZkTapF96d5QUwLthUC2vQtT84uFFqrIt9vLmq/MBssj9vxY1dLnBSi9/j4e/dsnSzlswNteLqDwroe+8r97/yut3UdfNTlbj1NoHGiz51bdVTBHQn/7Urbd4FES2kjy/q2u71a/0nCAQ3fLXbLI2NndxhnRVPB3Dzdbr5qm6osiNW2oUnh584oOVdafbDBaXjMXy0C0jd+srL0nJm28l6uoH/SUm7XTBvpV0bXpbbts6TZ7rAl+e4AgDQm/RI4Dpgwuk2Y9KB9sT9i8t/Oeun6w60E2Z8MjoI7GFxYx11s9aj1/hvQq55tNQaGzjCvS6PT3U7eE/1959337tl1StxvVnpcVjlR1cFd/OXHmk19/HlLrDs09WCO/wiu8d7ikB4DKmeMrCsanys4+a9/ofj7S73e2++yTNLTxB41A80xXuiwRm25tpRXctzAeRSN1+3oQJjL7Xrv7zKLgyWN9jNN21haF+n2TVa32eDZY2ya9foyQHz7YiKfXObNmtZ5bLctq05daFdf6qLtee631cHzQAAoEf0GT58+E69OOGEE+zyyy/3PkSXvfZq81+h11BwvfS0Gsa9AgCAImOMKwAAAAqBwBWF4v3lrM92mv4AgdetTzc+AAC7DQJXFIr3l7PCj7diuAAAALsNAlcAAAAUAjdnpWhr4+YsAACA3oAWVwAAABQCgSsAAAAKgcAVAAAAhUDgCgAAgEIgcAUAAEAhELgCAACgEAhcAQAAUAgErgAAACgEAlcAAAAUAoErAAAACoHAFQAAAIVA4AoAAIBCIHAFAABAIRC4AgAAoBAIXAEAAFAIBK4AAAAoBAJXAAAAFAKBKwAAAAqBwBUAAACFQOAKAACAQiBwBQAAQCEQuAIAAKAQCFwBAABQCASuAAAAKAQCVwAAABQCgSsAAAAKgcAVAAAAhUDgCgAAgEIgcAUAAEAhELgCAACgEAhcAQAAUAgErgAAACgEAlcAAAAUAoErAAAACoHAFQAAAIVA4AoAAIBCIHAFAABAIRC4AgAAoBAIXAEAAFAIBK4AAAAoBAJXAAAAFAKBKwAAAAqBwBUAAACFQOAKAACAQiBwBQAAQCEQuAIAAKAQCFwBAABQCASuAAAAKAQCVwAAABQCgSsAAAAKgcAVAAAAhUDgCgAAgEIgcAUAAEAhELgCAACgEAhcAQAAUAgErgAAACgEAlcAAAAUAoErAAAACoHAFQAAAIVA4AoAAIBCIHAFAABAIRC4AgAAoBAIXAEAAFAIBK4AAAAoBAJXAAAAFAKBKwAAAAqBwBUAAACFQOAKAACAQiBwBQAAQCEQuAIAAKAQCFwBAABQCASuAAAAKAQCVwAAABQCgSsAAAAKgcAVAAAAhUDgCgAAgEIgcAUAAEAhELgCAACgEAhcAQAAUAgErgAAACgEAlcAAAAUAoErAAAACoHAFQAAAIVA4AoAAIBCIHAFAABAIRC4AgAAoBAIXAEAAFAIBK4AAAAoBAJXAAAAFAKBKwAAAAqBwBUAAACFQOAKAACAQiBwBQAAQCEQuAIAAKAQCFwBAABQCASuAAAAKAQCVwAAABQCgSsAAAAKgcAVAAAAhUDgCgAAgEIgcAUAAEAhELgCAACgEAhcAQAAUAgErgAAACgEAlcAAAAUAoErAAAACoHAFQAAAIVA4AoAAIBCIHAFAABAIRC4AgAAoBAIXAEAAFAIBK4AAAAoBAJXAAAAFAKBKwAAAAqBwBUAAACFQOAKAACAQiBwBQAAQCEQuAIAAKAQCFwBAABQCASuAAAAKAQCVwAAABQCgSsAAAAKgcAVAAAAhUDgCgAAgEIgcAUAAEAhELgCAACgEAhcAQAAUAgErgAAACgEAlcAAAAUAoErAAAACoHAFQAAAIVA4AoAAIBCIHAFAABAIRC4AgAAoBAIXAEAAFAIBK4AAAAoBAJXAAAAFAKBKwAAAAqBwBUAAACFQOAKAACAQiBwBQAAQCEQuAIAAKAQCFwBAABQCASuAAAAKAQCVwAAABQCgSsAAAAKgcAVAAAAhUDgCgAAgEIgcAUAAEAhELgCAACgEAhcAQAAUAgErgAAACgEAlcAAAAUAoErAAAACoHAFQAAAIVA4AoAAIBCIHAFAABAIRC4AgAAoBAIXAEAAFAIBK4AAAAoBAJXAAAAFAKBKwAAAAqBwBUAAACFQOAKAACAQiBwBQAAQCEQuAIAAKAQCFwBAABQCASuAAAAKAQCVwAAABQCgSsAAAAKgcAVAAAAhUDgCgAAgEIgcAUAAEAhELgCAACgEAhcAQAAUAgErgAAACgEAlcAAAAUAoErAAAACoHAFQAAAIVA4AoAAIBCIHAFAABAIRC4AgAAoBAIXAEAAFAIBK4AAAAoBAJXAAAAFAKBKwAAAAqBwBUAAACFQOAKAACAQiBwBQAAQCEQuAIAAKAQCFwBAABQCASuAAAAKAQCVwAAABQCgSsAAAAKgcAVAAAAhUDgCgAAgEIgcAUAAEAhELgCAACgEAhcAQAAUAgErgAAACgEAlcAAAAUAoErAAAACoHAFQAAAIVA4AoAAIBCIHAFAABAIRC4AgAAoBAIXAEAAFAIBK4AAAAoBAJXAAAAFAKBKwAAAAqBwBUAAACFQOAKAACAQiBwBQAAQCEQuAIAAKAQCFwBAABQCASuAAAAKAQCVwAAABQCgSsAAAAKgcAVAAAAhUDgCgAAgEIgcAUAAEAhELgCAACgEAhcAQAAUAgErgAAACgEAlcAAAAUAoErAAAACsDs/wODl8wSLn4ZDwAAAABJRU5ErkJggg==;" vertex="1" parent="1">
          <mxGeometry x="1110" y="460" width="395.54" height="232" as="geometry" />
        </mxCell>
      </root>
    </mxGraphModel>
  </diagram>
</mxfile>
